<mxfile host="app.diagrams.net" modified="2021-09-03T02:45:48.646Z" agent="5.0 (Macintosh; Intel Mac OS X 10_15_7) AppleWebKit/605.1.15 (KHTML, like Gecko) Version/14.1.2 Safari/605.1.15" etag="VMSSnjwGcuWQtcy4Vk2K" version="15.0.5" type="github">
  <diagram id="JmoXTaD1lEMlr2eWaGcY" name="Page-1">
    <mxGraphModel dx="1149" dy="569" grid="1" gridSize="10" guides="1" tooltips="1" connect="1" arrows="1" fold="1" page="1" pageScale="1" pageWidth="850" pageHeight="1100" math="0" shadow="0">
      <root>
        <mxCell id="0" />
        <mxCell id="1" parent="0" />
        <mxCell id="OrrjBf1ppI-KS7zJaC-k-4" value="" style="endArrow=classic;startArrow=classic;html=1;fillColor=#FF6666;strokeColor=#FF6666;" edge="1" parent="1">
          <mxGeometry width="50" height="50" relative="1" as="geometry">
            <mxPoint x="30" y="540" as="sourcePoint" />
            <mxPoint x="770" y="100" as="targetPoint" />
            <Array as="points">
              <mxPoint x="30" y="100" />
            </Array>
          </mxGeometry>
        </mxCell>
        <mxCell id="OrrjBf1ppI-KS7zJaC-k-5" value="&lt;u&gt;Member:&lt;br&gt;Library Member&lt;/u&gt;" style="shape=umlLifeline;perimeter=lifelinePerimeter;whiteSpace=wrap;html=1;container=1;collapsible=0;recursiveResize=0;outlineConnect=0;" vertex="1" parent="1">
          <mxGeometry x="120" y="150" width="100" height="300" as="geometry" />
        </mxCell>
        <mxCell id="OrrjBf1ppI-KS7zJaC-k-6" value="&lt;u&gt;book:&lt;br&gt;Book&lt;/u&gt;" style="shape=umlLifeline;perimeter=lifelinePerimeter;whiteSpace=wrap;html=1;container=1;collapsible=0;recursiveResize=0;outlineConnect=0;" vertex="1" parent="1">
          <mxGeometry x="375" y="150" width="100" height="300" as="geometry" />
        </mxCell>
        <mxCell id="OrrjBf1ppI-KS7zJaC-k-7" value="&lt;u&gt;:Book&lt;br&gt;Copy&lt;/u&gt;" style="shape=umlLifeline;perimeter=lifelinePerimeter;whiteSpace=wrap;html=1;container=1;collapsible=0;recursiveResize=0;outlineConnect=0;" vertex="1" parent="1">
          <mxGeometry x="580" y="150" width="100" height="300" as="geometry" />
        </mxCell>
        <mxCell id="OrrjBf1ppI-KS7zJaC-k-10" value="" style="html=1;points=[];perimeter=orthogonalPerimeter;" vertex="1" parent="1">
          <mxGeometry x="165" y="220" width="10" height="160" as="geometry" />
        </mxCell>
        <mxCell id="OrrjBf1ppI-KS7zJaC-k-11" value="" style="html=1;points=[];perimeter=orthogonalPerimeter;" vertex="1" parent="1">
          <mxGeometry x="420" y="310" width="10" height="80" as="geometry" />
        </mxCell>
        <mxCell id="OrrjBf1ppI-KS7zJaC-k-12" value="" style="html=1;points=[];perimeter=orthogonalPerimeter;" vertex="1" parent="1">
          <mxGeometry x="625" y="360" width="10" height="50" as="geometry" />
        </mxCell>
        <mxCell id="OrrjBf1ppI-KS7zJaC-k-20" value="" style="html=1;points=[];perimeter=orthogonalPerimeter;" vertex="1" parent="1">
          <mxGeometry x="175" y="250" width="10" height="40" as="geometry" />
        </mxCell>
        <mxCell id="OrrjBf1ppI-KS7zJaC-k-21" value="ok = mayBorrow()" style="edgeStyle=orthogonalEdgeStyle;html=1;align=left;spacingLeft=2;endArrow=block;rounded=0;entryX=1;entryY=0;strokeColor=#000000;fillColor=#FF6666;" edge="1" target="OrrjBf1ppI-KS7zJaC-k-20" parent="1">
          <mxGeometry relative="1" as="geometry">
            <mxPoint x="180" y="230" as="sourcePoint" />
            <Array as="points">
              <mxPoint x="210" y="230" />
              <mxPoint x="210" y="250" />
            </Array>
          </mxGeometry>
        </mxCell>
        <mxCell id="OrrjBf1ppI-KS7zJaC-k-22" value="borrow(book)" style="html=1;verticalAlign=bottom;endArrow=block;strokeColor=#000000;fillColor=#FF6666;" edge="1" parent="1">
          <mxGeometry width="80" relative="1" as="geometry">
            <mxPoint x="80" y="230" as="sourcePoint" />
            <mxPoint x="160" y="230" as="targetPoint" />
          </mxGeometry>
        </mxCell>
        <mxCell id="OrrjBf1ppI-KS7zJaC-k-23" value="[ok]borrow(member)&lt;br&gt;" style="html=1;verticalAlign=bottom;endArrow=block;strokeColor=#000000;fillColor=#FF6666;entryX=-0.4;entryY=0.638;entryDx=0;entryDy=0;entryPerimeter=0;" edge="1" parent="1" target="OrrjBf1ppI-KS7zJaC-k-11">
          <mxGeometry width="80" relative="1" as="geometry">
            <mxPoint x="175" y="360" as="sourcePoint" />
            <mxPoint x="255" y="360" as="targetPoint" />
          </mxGeometry>
        </mxCell>
        <mxCell id="OrrjBf1ppI-KS7zJaC-k-24" value="setTaken(member)&lt;br&gt;" style="html=1;verticalAlign=bottom;endArrow=block;strokeColor=#000000;fillColor=#FF6666;entryX=0.1;entryY=0.4;entryDx=0;entryDy=0;entryPerimeter=0;" edge="1" parent="1" target="OrrjBf1ppI-KS7zJaC-k-12">
          <mxGeometry width="80" relative="1" as="geometry">
            <mxPoint x="430" y="380" as="sourcePoint" />
            <mxPoint x="510" y="380" as="targetPoint" />
          </mxGeometry>
        </mxCell>
        <mxCell id="OrrjBf1ppI-KS7zJaC-k-25" value="X-Axis(objects)" style="text;html=1;align=center;verticalAlign=middle;resizable=0;points=[];autosize=1;strokeColor=none;fillColor=none;" vertex="1" parent="1">
          <mxGeometry x="290" y="70" width="100" height="20" as="geometry" />
        </mxCell>
        <mxCell id="OrrjBf1ppI-KS7zJaC-k-26" value="Y-Axis(time)" style="text;html=1;align=center;verticalAlign=middle;resizable=0;points=[];autosize=1;strokeColor=none;fillColor=none;rotation=90;" vertex="1" parent="1">
          <mxGeometry x="-20" y="210" width="80" height="20" as="geometry" />
        </mxCell>
        <mxCell id="OrrjBf1ppI-KS7zJaC-k-29" value="" style="whiteSpace=wrap;html=1;shape=mxgraph.basic.rectCallout;dx=30;dy=15;boundedLbl=1;rotation=-180;fillColor=#FFFF00;" vertex="1" parent="1">
          <mxGeometry x="40" y="240" width="100" height="50" as="geometry" />
        </mxCell>
        <mxCell id="OrrjBf1ppI-KS7zJaC-k-30" value="message" style="text;html=1;strokeColor=none;fillColor=none;align=center;verticalAlign=middle;whiteSpace=wrap;rounded=0;" vertex="1" parent="1">
          <mxGeometry x="70" y="260" width="40" height="20" as="geometry" />
        </mxCell>
        <mxCell id="OrrjBf1ppI-KS7zJaC-k-31" value="" style="whiteSpace=wrap;html=1;shape=mxgraph.basic.rectCallout;dx=30;dy=15;boundedLbl=1;rotation=-180;fillColor=#FFFF00;" vertex="1" parent="1">
          <mxGeometry x="190" y="370" width="100" height="60" as="geometry" />
        </mxCell>
        <mxCell id="OrrjBf1ppI-KS7zJaC-k-32" value="condition" style="text;html=1;strokeColor=none;fillColor=none;align=center;verticalAlign=middle;whiteSpace=wrap;rounded=0;" vertex="1" parent="1">
          <mxGeometry x="220" y="400" width="40" height="20" as="geometry" />
        </mxCell>
        <mxCell id="OrrjBf1ppI-KS7zJaC-k-33" value="" style="whiteSpace=wrap;html=1;shape=mxgraph.basic.rectCallout;dx=30;dy=15;boundedLbl=1;rotation=90;fillColor=#FFFF00;" vertex="1" parent="1">
          <mxGeometry x="425" y="230" width="100" height="60" as="geometry" />
        </mxCell>
        <mxCell id="OrrjBf1ppI-KS7zJaC-k-35" value="Life&amp;nbsp;&lt;br&gt;LIne" style="text;html=1;strokeColor=none;fillColor=none;align=center;verticalAlign=middle;whiteSpace=wrap;rounded=0;" vertex="1" parent="1">
          <mxGeometry x="459.9999999999998" y="250" width="40" height="20" as="geometry" />
        </mxCell>
        <mxCell id="OrrjBf1ppI-KS7zJaC-k-38" value="" style="whiteSpace=wrap;html=1;shape=mxgraph.basic.rectCallout;dx=30;dy=15;boundedLbl=1;rotation=-180;fillColor=#FFFF00;" vertex="1" parent="1">
          <mxGeometry x="540" y="200" width="85" height="40" as="geometry" />
        </mxCell>
        <mxCell id="OrrjBf1ppI-KS7zJaC-k-39" value="Object" style="text;html=1;strokeColor=none;fillColor=none;align=center;verticalAlign=middle;whiteSpace=wrap;rounded=0;" vertex="1" parent="1">
          <mxGeometry x="562.4999999999998" y="220" width="40" height="20" as="geometry" />
        </mxCell>
        <mxCell id="OrrjBf1ppI-KS7zJaC-k-43" value="Activation Box" style="whiteSpace=wrap;html=1;shape=mxgraph.basic.rectCallout;dx=30;dy=15;boundedLbl=1;fillColor=#FFFF00;" vertex="1" parent="1">
          <mxGeometry x="640" y="330" width="100" height="60" as="geometry" />
        </mxCell>
      </root>
    </mxGraphModel>
  </diagram>
</mxfile>
